<svg width="250" height="179" viewBox="0 0 250 179" fill="none" xmlns="http://www.w3.org/2000/svg">
<g clip-path="url(#clip0_70_34)">
<path d="M242.609 52.4515H105.806C103.88 52.4533 102.034 53.219 100.672 54.5807C99.3102 55.9423 98.5445 57.7886 98.5427 59.7143V81.8849C98.5445 83.8106 99.3102 85.6569 100.672 87.0185C102.034 88.3802 103.88 89.1459 105.806 89.1477H242.609C244.534 89.1459 246.381 88.3802 247.742 87.0185C249.104 85.6569 249.87 83.8106 249.871 81.8849V59.7143C249.87 57.7886 249.104 55.9423 247.742 54.5807C246.381 53.219 244.534 52.4533 242.609 52.4515Z" fill="#F2F2F2"/>
<path d="M54.8617 178.991H0.435411C0.319932 178.991 0.209177 178.945 0.127522 178.863C0.0458665 178.781 0 178.671 0 178.555C0 178.44 0.0458665 178.329 0.127522 178.247C0.209177 178.166 0.319932 178.12 0.435411 178.12H54.8617C54.9772 178.12 55.0879 178.166 55.1696 178.247C55.2513 178.329 55.2971 178.44 55.2971 178.555C55.2971 178.671 55.2513 178.781 55.1696 178.863C55.0879 178.945 54.9772 178.991 54.8617 178.991Z" fill="#3F3D56"/>
<path d="M46.8704 42.6609C46.3657 42.9795 45.9369 43.4048 45.6144 43.9071C45.2918 44.4093 45.0833 44.9761 45.0035 45.5676C44.9237 46.1592 44.9746 46.761 45.1525 47.3307C45.3305 47.9005 45.6312 48.4243 46.0335 48.8652L42.0767 57.3146L46.6249 60.9715L52.0451 48.9608C52.7411 48.2359 53.147 47.2808 53.1858 46.2767C53.2247 45.2725 52.8939 44.2889 52.256 43.5124C51.6182 42.7358 50.7176 42.2202 49.725 42.0633C48.7324 41.9063 47.7167 42.119 46.8704 42.6609Z" fill="#FFB8B8"/>
<path d="M24.1326 46.0897C25.3848 45.3375 26.8785 45.0961 28.3039 45.4157C29.7293 45.7352 30.9771 46.5911 31.7884 47.8059L39.8847 59.9287L42.6955 53.7322C42.871 53.3453 43.1819 53.0358 43.5697 52.8622C43.9574 52.6885 44.3953 52.6626 44.8009 52.7892L49.0432 54.1145C49.2648 54.1837 49.4704 54.2965 49.6478 54.4464C49.8252 54.5962 49.9708 54.78 50.0761 54.9869C50.1814 55.1939 50.2443 55.4198 50.261 55.6514C50.2778 55.883 50.248 56.1156 50.1735 56.3355L47.2695 64.9106C46.9022 65.9953 46.2884 66.9802 45.4764 67.7878C44.6644 68.5954 43.6763 69.2038 42.5896 69.5652C41.5029 69.9267 40.3472 70.0313 39.2132 69.871C38.0793 69.7106 36.9979 69.2896 36.054 68.641C35.613 68.338 35.206 67.988 34.8403 67.5973L22.909 54.8487C22.3296 54.2296 21.896 53.4888 21.64 52.6805C21.3839 51.8721 21.3119 51.0168 21.4292 50.177C21.5466 49.3373 21.8502 48.5344 22.3179 47.8272C22.7857 47.1199 23.4057 46.5263 24.1326 46.0897Z" fill="#CCCCCC"/>
<path d="M50.3239 33.5637C50.5412 33.5691 50.7474 33.6606 50.8973 33.818C51.0471 33.9755 51.1283 34.1861 51.1229 34.4034L51.053 37.2173L51.1941 37.2302L51.1434 39.1413L51.0056 39.1242L50.7552 49.205C50.7467 49.55 50.6129 49.8801 50.3788 50.1337C50.1447 50.3874 49.8263 50.5471 49.4831 50.5833L43.073 51.2581C42.917 51.2745 42.7592 51.2566 42.6108 51.2056C42.4624 51.1546 42.3269 51.0718 42.2139 50.9629C42.1009 50.8541 42.0131 50.7218 41.9566 50.5754C41.9001 50.429 41.8763 50.272 41.8869 50.1154L42.8591 35.761C42.8795 35.4595 43.0019 35.174 43.2061 34.9512C43.4104 34.7285 43.6843 34.5819 43.9829 34.5355L50.171 33.5742C50.2215 33.5659 50.2727 33.5624 50.3239 33.5637Z" fill="#3F3D56"/>
<path d="M45.363 35.0577L48.6161 34.5523C48.6746 34.5432 48.7285 34.515 48.7695 34.4722C48.8104 34.4294 48.8361 34.3742 48.8425 34.3153C48.8498 34.2486 48.8789 34.1861 48.9253 34.1376C48.9717 34.0891 49.0327 34.0572 49.099 34.0469L49.7843 33.9405C49.8778 33.9259 49.9734 33.9321 50.0642 33.9585C50.1551 33.985 50.239 34.031 50.3101 34.0935C50.3812 34.1559 50.4378 34.2331 50.4758 34.3198C50.5138 34.4065 50.5323 34.5004 50.53 34.595L50.1778 49.2105C50.1735 49.3918 50.1025 49.5653 49.9784 49.6976C49.8543 49.83 49.6858 49.912 49.5051 49.9281L43.0998 50.4976C43.0181 50.5048 42.9358 50.4944 42.8585 50.4669C42.7812 50.4394 42.7107 50.3956 42.6519 50.3384C42.5931 50.2812 42.5473 50.212 42.5177 50.1355C42.4881 50.059 42.4753 49.977 42.4803 49.8952L43.3446 35.6734C43.3573 35.4639 43.4413 35.265 43.5827 35.1098C43.724 34.9546 43.9142 34.8524 44.1216 34.8202L44.844 34.7079C44.8705 34.8209 44.9387 34.9197 45.0349 34.9845C45.1311 35.0493 45.2483 35.0755 45.363 35.0577Z" fill="white"/>
<path d="M30.2706 173.705L35.2482 173.705L37.6155 154.505L30.2689 154.506L30.2706 173.705Z" fill="#FFB8B8"/>
<path d="M44.8484 178.326L29.2043 178.328L29.2037 172.283L38.8036 172.282C39.5973 172.282 40.3833 172.439 41.1167 172.742C41.85 173.046 42.5164 173.491 43.0777 174.052C43.639 174.614 44.0843 175.28 44.3881 176.013C44.692 176.747 44.8484 177.533 44.8484 178.326Z" fill="#2F2E41"/>
<path d="M14.972 173.705L19.9496 173.705L22.317 154.505L14.9703 154.506L14.972 173.705Z" fill="#FFB8B8"/>
<path d="M29.55 178.326L13.9058 178.328L13.9053 172.283L23.5051 172.282C25.1082 172.282 26.6456 172.919 27.7793 174.052C28.9129 175.186 29.5498 176.723 29.55 178.326Z" fill="#2F2E41"/>
<path d="M29.55 39.5643C35.4562 39.5643 40.2441 34.7764 40.2441 28.8702C40.2441 22.964 35.4562 18.1761 29.55 18.1761C23.6438 18.1761 18.8558 22.964 18.8558 28.8702C18.8558 34.7764 23.6438 39.5643 29.55 39.5643Z" fill="#FFB8B8"/>
<path d="M35.0538 57.4821C34.9665 54.7327 34.1924 52.0488 32.8022 49.6751C31.4121 47.3013 29.4499 45.3133 27.0947 43.892C24.3319 42.264 21.3077 41.6291 18.9018 44.035C17.4571 45.5159 16.3002 47.2523 15.4899 49.1559C13.2644 54.3433 13.1188 60.1879 15.0833 65.4796L20.8096 81.2998L34.0631 82.7356C34.3121 82.7626 34.5639 82.7355 34.8015 82.6563C35.039 82.5772 35.2567 82.4477 35.4397 82.2767C35.6226 82.1058 35.7666 81.8974 35.8617 81.6658C35.9569 81.4342 36.001 81.1847 35.991 80.9345L35.0538 57.4821Z" fill="#2F2E41"/>
<path d="M21.6499 79.3517C21.6499 79.3517 11.7481 83.0482 14.3369 98.7007C16.66 112.746 14.8139 159.366 14.4104 168.79C14.3912 169.239 14.5465 169.679 14.844 170.016C15.1414 170.353 15.5578 170.562 16.0058 170.599L21.7859 171.08C22.2386 171.118 22.6882 170.977 23.0386 170.688C23.3891 170.399 23.6128 169.985 23.662 169.533L26.6471 142.114C26.6588 142.006 26.7102 141.907 26.7912 141.835C26.8722 141.763 26.977 141.724 27.0853 141.726C27.1935 141.727 27.2973 141.768 27.3766 141.842C27.4558 141.916 27.5047 142.017 27.5138 142.124L29.7382 168.508C29.7757 168.953 29.9823 169.366 30.3155 169.663C30.6486 169.959 31.0829 170.117 31.5288 170.103L36.3837 169.949C36.6125 169.942 36.8376 169.89 37.0461 169.795C37.2547 169.701 37.4427 169.566 37.5992 169.399C37.7558 169.232 37.8779 169.036 37.9585 168.822C38.0392 168.608 38.0768 168.38 38.0693 168.151L35.2094 81.1799L21.6499 79.3517Z" fill="#2F2E41"/>
<path d="M31.6963 28.1656C35.2729 29.6325 39.8403 27.919 41.5696 24.4616C43.2988 21.0042 41.9303 16.3218 38.6113 14.3398C35.2923 12.3578 30.5209 13.3737 28.2973 16.5358C26.4884 13.2769 21.7496 12.4461 18.496 14.2645C15.2424 16.0829 13.4702 19.8917 13.2601 23.613C13.0499 27.3344 14.1812 31.0004 15.5613 34.4627C17.7938 40.0632 24.9806 43.0787 30.5409 40.748C27.9954 36.9567 28.4979 31.4086 31.6963 28.1656Z" fill="#2F2E41"/>
<path d="M46.1089 43.9575C46.0137 43.9576 45.921 43.9268 45.8449 43.8697L45.8402 43.8662L44.8459 43.1056C44.7998 43.0703 44.7612 43.0262 44.7321 42.976C44.7031 42.9258 44.6843 42.8703 44.6767 42.8128C44.6691 42.7553 44.6729 42.6968 44.6879 42.6407C44.7029 42.5847 44.7287 42.5321 44.764 42.4861C44.7994 42.44 44.8434 42.4014 44.8936 42.3723C44.9439 42.3433 44.9993 42.3245 45.0569 42.3169C45.1144 42.3093 45.1728 42.3131 45.2289 42.3281C45.2849 42.3431 45.3375 42.3689 45.3835 42.4042L46.0276 42.8981L47.5495 40.9126C47.5847 40.8666 47.6287 40.828 47.679 40.799C47.7292 40.7699 47.7846 40.7511 47.8421 40.7435C47.8996 40.7359 47.9581 40.7397 48.0141 40.7547C48.0701 40.7697 48.1227 40.7956 48.1687 40.8309C48.2616 40.9022 48.3227 41.0076 48.338 41.1237C48.3533 41.2398 48.322 41.3573 48.2508 41.4503L46.4607 43.7846C46.4193 43.8384 46.3661 43.8819 46.3051 43.9118C46.2442 43.9417 46.1771 43.9571 46.1093 43.9569L46.1089 43.9575Z" fill="#E53935"/>
<path d="M242.737 0H105.934C104.008 0.00174433 102.162 0.767493 100.8 2.12915C99.4388 3.49081 98.673 5.3371 98.6713 7.26278V29.4334C98.673 31.359 99.4388 33.2053 100.8 34.567C102.162 35.9287 104.008 36.6944 105.934 36.6961H242.737C244.663 36.6944 246.509 35.9287 247.871 34.567C249.233 33.2053 249.998 31.359 250 29.4334V7.26278C249.998 5.3371 249.233 3.4908 247.871 2.12914C246.509 0.767488 244.663 0.00174432 242.737 0ZM249.236 29.4334C249.233 31.1561 248.548 32.8075 247.33 34.0256C246.111 35.2438 244.46 35.9292 242.737 35.9316H105.934C104.211 35.9292 102.56 35.2438 101.342 34.0256C100.124 32.8075 99.4382 31.1561 99.4358 29.4334V7.26278C99.4382 5.54008 100.124 3.88863 101.342 2.6705C102.56 1.45236 104.211 0.766938 105.934 0.7645H242.737C244.46 0.766938 246.111 1.45236 247.33 2.6705C248.548 3.88863 249.233 5.54008 249.236 7.26278V29.4334Z" fill="#3F3D56"/>
<path d="M133.774 30.989C131.274 30.989 128.83 30.2476 126.751 28.8586C124.672 27.4696 123.052 25.4954 122.095 23.1856C121.138 20.8758 120.888 18.3341 121.376 15.882C121.863 13.4299 123.067 11.1775 124.835 9.40958C126.603 7.6417 128.855 6.43776 131.307 5.95C133.76 5.46224 136.301 5.71257 138.611 6.66932C140.921 7.62608 142.895 9.24631 144.284 11.3251C145.673 13.4039 146.414 15.8479 146.414 18.348C146.411 21.6994 145.078 24.9125 142.708 27.2823C140.338 29.6521 137.125 30.9851 133.774 30.989Z" fill="#E53935"/>
<path d="M224.072 28.6689H158.367C157.556 28.6689 156.778 28.3467 156.205 27.7732C155.631 27.1997 155.309 26.4219 155.309 25.6109C155.309 24.7998 155.631 24.022 156.205 23.4485C156.778 22.8751 157.556 22.5529 158.367 22.5529H224.072C224.883 22.5529 225.661 22.8751 226.234 23.4485C226.807 24.022 227.13 24.7998 227.13 25.6109C227.13 26.4219 226.807 27.1997 226.234 27.7732C225.661 28.3467 224.883 28.6689 224.072 28.6689Z" fill="#CCCCCC"/>
<path d="M180.113 15.6723H158.367C157.556 15.6723 156.778 15.3501 156.205 14.7766C155.631 14.2031 155.309 13.4253 155.309 12.6143C155.309 11.8033 155.631 11.0254 156.205 10.452C156.778 9.87847 157.556 9.55627 158.367 9.55627H180.113C180.924 9.55627 181.702 9.87847 182.275 10.452C182.849 11.0254 183.171 11.8033 183.171 12.6143C183.171 13.4253 182.849 14.2031 182.275 14.7766C181.702 15.3501 180.924 15.6723 180.113 15.6723Z" fill="#CCCCCC"/>
<path d="M133.128 22.7945C132.814 22.795 132.509 22.6936 132.258 22.5054L132.243 22.4938L128.966 19.9874C128.814 19.8712 128.687 19.7262 128.591 19.5606C128.495 19.395 128.432 19.2121 128.407 19.0224C128.382 18.8326 128.394 18.6398 128.444 18.4549C128.493 18.27 128.578 18.0966 128.695 17.9447C128.811 17.7928 128.956 17.6653 129.122 17.5696C129.288 17.4739 129.471 17.4118 129.661 17.3869C129.851 17.362 130.043 17.3748 130.228 17.4245C130.413 17.4741 130.586 17.5598 130.738 17.6765L132.86 19.3038L137.875 12.7615C137.991 12.6098 138.136 12.4825 138.302 12.3869C138.467 12.2913 138.65 12.2291 138.839 12.2041C139.029 12.1791 139.221 12.1916 139.406 12.241C139.591 12.2904 139.764 12.3757 139.915 12.492L139.916 12.4923L139.885 12.5355L139.917 12.4923C140.223 12.7275 140.423 13.0744 140.473 13.4571C140.524 13.8397 140.42 14.2267 140.186 14.5332L134.287 22.225C134.151 22.4022 133.976 22.5456 133.775 22.6441C133.574 22.7426 133.353 22.7935 133.129 22.7928L133.128 22.7945Z" fill="white"/>
<path d="M183.957 59.6512H47.1536C45.228 59.653 43.3817 60.4187 42.02 61.7804C40.6583 63.1421 39.8926 64.9883 39.8909 66.914V89.0846C39.8926 91.0103 40.6583 92.8566 42.02 94.2182C43.3817 95.5799 45.228 96.3456 47.1536 96.3474H183.957C185.883 96.3456 187.729 95.5799 189.09 94.2182C190.452 92.8566 191.218 91.0103 191.22 89.0846V66.914C191.218 64.9883 190.452 63.1421 189.09 61.7804C187.729 60.4187 185.883 59.653 183.957 59.6512Z" fill="white"/>
<path d="M183.957 59.6512H47.1536C45.228 59.653 43.3817 60.4187 42.02 61.7804C40.6583 63.1421 39.8926 64.9883 39.8909 66.914V89.0846C39.8926 91.0103 40.6583 92.8566 42.02 94.2182C43.3817 95.5799 45.228 96.3456 47.1536 96.3474H183.957C185.883 96.3456 187.729 95.5799 189.09 94.2182C190.452 92.8566 191.218 91.0103 191.22 89.0846V66.914C191.218 64.9883 190.452 63.1421 189.09 61.7804C187.729 60.4187 185.883 59.653 183.957 59.6512ZM190.455 89.0846C190.453 90.8073 189.767 92.4588 188.549 93.6769C187.331 94.895 185.68 95.5804 183.957 95.5829H47.1536C45.4309 95.5804 43.7795 94.895 42.5614 93.6769C41.3432 92.4588 40.6578 90.8073 40.6553 89.0846V66.914C40.6578 65.1913 41.3432 63.5399 42.5613 62.3217C43.7795 61.1036 45.4309 60.4182 47.1536 60.4158H183.957C185.68 60.4182 187.331 61.1036 188.549 62.3217C189.767 63.5399 190.453 65.1913 190.455 66.914V89.0846Z" fill="#3F3D56"/>
<path d="M74.9933 90.6402C72.4931 90.6402 70.0491 89.8989 67.9703 88.5099C65.8915 87.1209 64.2713 85.1467 63.3145 82.8368C62.3577 80.527 62.1074 77.9853 62.5951 75.5332C63.0829 73.0811 64.2868 70.8287 66.0547 69.0608C67.8225 67.2929 70.0749 66.089 72.527 65.6012C74.9791 65.1135 77.5208 65.3638 79.8306 66.3206C82.1405 67.2773 84.1147 68.8976 85.5037 70.9763C86.8927 73.0551 87.6341 75.4991 87.6341 77.9993C87.6303 81.3507 86.2973 84.5637 83.9275 86.9335C81.5577 89.3034 78.3447 90.6364 74.9933 90.6402Z" fill="#E53935"/>
<path d="M165.291 88.3201H99.5867C98.7757 88.3201 97.9979 87.9979 97.4244 87.4245C96.8509 86.851 96.5287 86.0731 96.5287 85.2621C96.5287 84.4511 96.8509 83.6733 97.4244 83.0998C97.9979 82.5263 98.7757 82.2041 99.5867 82.2041H165.291C166.102 82.2041 166.88 82.5263 167.454 83.0998C168.027 83.6733 168.349 84.4511 168.349 85.2621C168.349 86.0731 168.027 86.851 167.454 87.4245C166.88 87.9979 166.102 88.3201 165.291 88.3201Z" fill="#CCCCCC"/>
<path d="M121.332 75.3235H99.5867C99.1852 75.3235 98.7875 75.2444 98.4165 75.0908C98.0455 74.9371 97.7084 74.7118 97.4244 74.4279C97.1405 74.1439 96.9152 73.8068 96.7615 73.4358C96.6078 73.0648 96.5287 72.6671 96.5287 72.2655C96.5287 71.8639 96.6078 71.4663 96.7615 71.0953C96.9152 70.7243 97.1405 70.3872 97.4244 70.1032C97.7084 69.8192 98.0455 69.594 98.4165 69.4403C98.7875 69.2866 99.1852 69.2075 99.5867 69.2075H121.332C122.143 69.2075 122.921 69.5297 123.495 70.1032C124.068 70.6767 124.39 71.4545 124.39 72.2655C124.39 73.0766 124.068 73.8544 123.495 74.4279C122.921 75.0014 122.143 75.3235 121.332 75.3235Z" fill="#CCCCCC"/>
<path d="M74.3477 82.4458C74.034 82.4463 73.7287 82.3448 73.4778 82.1567L73.4622 82.145L70.1859 79.6387C70.0338 79.5225 69.9061 79.3774 69.8101 79.2118C69.7142 79.0462 69.6518 78.8633 69.6266 78.6736C69.6014 78.4839 69.6138 78.291 69.6632 78.1061C69.7126 77.9212 69.7979 77.7478 69.9144 77.5959C70.0308 77.444 70.1761 77.3166 70.3418 77.2209C70.5076 77.1252 70.6906 77.0631 70.8804 77.0382C71.0701 77.0133 71.263 77.026 71.4478 77.0757C71.6326 77.1254 71.8059 77.211 71.9576 77.3277L74.0797 78.9551L79.0945 72.4127C79.2108 72.2611 79.3558 72.1338 79.5213 72.0381C79.6868 71.9425 79.8695 71.8804 80.059 71.8554C80.2484 71.8303 80.441 71.8429 80.6256 71.8923C80.8103 71.9417 80.9834 72.0269 81.135 72.1432L81.1355 72.1435L81.1043 72.1867L81.1363 72.1435C81.4423 72.3787 81.6425 72.7257 81.693 73.1083C81.7435 73.4909 81.6401 73.878 81.4055 74.1844L75.507 81.8762C75.3706 82.0535 75.1951 82.1969 74.9943 82.2953C74.7934 82.3938 74.5726 82.4447 74.349 82.444L74.3477 82.4458Z" fill="white"/>
<path d="M42.7175 64.6525C42.1677 64.4199 41.5737 64.3108 40.9772 64.3327C40.3807 64.3546 39.7963 64.507 39.2651 64.7792C38.7339 65.0514 38.2689 65.4368 37.9027 65.9082C37.5365 66.3796 37.2782 66.9255 37.1459 67.5075L27.9498 69.0829L27.5442 74.9048L40.4995 72.4977C41.492 72.6552 42.5078 72.4432 43.3544 71.9018C44.201 71.3604 44.8197 70.5272 45.0931 69.5602C45.3665 68.5932 45.2756 67.5595 44.8378 66.6549C44.4 65.7504 43.6455 65.0379 42.7175 64.6525Z" fill="#FFB8B8"/>
<path d="M26.9209 47.942C28.2534 48.5407 29.3043 49.6292 29.8558 50.9819C30.4072 52.3346 30.4168 53.8477 29.8827 55.2073L24.5521 68.7756L31.2442 67.5456C31.6621 67.4688 32.0936 67.5474 32.4576 67.7666C32.8216 67.9858 33.0929 68.3305 33.2204 68.7358L34.5544 72.9753C34.6241 73.1968 34.6488 73.43 34.6271 73.6612C34.6053 73.8924 34.5376 74.1169 34.4278 74.3215C34.318 74.5261 34.1684 74.7067 33.9878 74.8527C33.8072 74.9986 33.5993 75.107 33.3762 75.1714L24.678 77.6828C23.5777 78.0005 22.4188 78.0589 21.2921 77.8533C20.1655 77.6477 19.1019 77.1838 18.1847 76.498C17.2675 75.8121 16.5218 74.923 16.006 73.9005C15.4903 72.878 15.2186 71.7498 15.2122 70.6046C15.2092 70.0695 15.2642 69.5356 15.3762 69.0123L19.0311 51.9382C19.2086 51.109 19.5692 50.3301 20.0867 49.6584C20.6042 48.9867 21.2653 48.4392 22.0218 48.0561C22.7782 47.673 23.6107 47.4639 24.4584 47.4442C25.3061 47.4244 26.1474 47.5945 26.9209 47.942Z" fill="#CCCCCC"/>
</g>
<defs>
<clipPath id="clip0_70_34">
<rect width="250" height="178.991" fill="white"/>
</clipPath>
</defs>
</svg>
