<svg width="128" height="128" viewBox="0 0 128 128" fill="none" xmlns="http://www.w3.org/2000/svg">
<path d="M9.11733 106.52C9.672 113.323 14.9547 118.44 21.7627 118.912C29.6 119.456 41.6987 120 58.6667 120C75.6347 120 87.7333 119.456 95.5707 118.912C102.379 118.443 107.661 113.323 108.216 106.52C108.789 99.4932 109.333 89.0319 109.333 74.6666C109.333 60.3012 108.789 49.8399 108.216 42.8133C107.661 36.0106 102.379 30.8933 95.5707 30.4213C87.7307 29.8773 75.6347 29.3333 58.6667 29.3333C41.6987 29.3333 29.6 29.8773 21.76 30.4213C14.9547 30.8906 9.672 36.0106 9.11733 42.8133C8.544 49.8373 8 60.3012 8 74.6666C8 89.0319 8.544 99.4932 9.11733 106.52Z" fill="#8FBFFA"/>
<path d="M19.0933 30.8586C35.0533 22.5333 55.44 14.8453 74.448 10.1653C79.976 8.80525 85.688 10.8533 88.5627 15.7653C90.624 19.2853 93.1413 24.1173 95.8 30.4373L95.5707 30.4213C87.7307 29.8773 75.6347 29.3333 58.664 29.3333C41.6987 29.3333 29.6 29.8773 21.7627 30.4213C20.862 30.4831 19.9665 30.6295 19.0933 30.8586ZM77.504 82.9946C77.7573 88.6746 82.136 92.9066 87.8133 93.1333C90.7067 93.2506 94.304 93.3333 98.6667 93.3333C103.029 93.3333 106.627 93.2506 109.52 93.1333C115.2 92.9066 119.576 88.6746 119.829 82.9946C119.931 80.6826 120 77.9173 120 74.6666C120 71.4159 119.931 68.6506 119.829 66.3386C119.576 60.6586 115.197 56.4266 109.52 56.1999C105.904 56.0611 102.285 55.9944 98.6667 55.9999C94.304 55.9999 90.7067 56.0826 87.8133 56.1999C82.1333 56.4266 77.7573 60.6586 77.504 66.3386C77.386 69.113 77.3291 71.8897 77.3333 74.6666C77.3333 77.9199 77.4027 80.6826 77.504 82.9946Z" fill="white"/>
<path d="M19.384 30.7066C35.3013 22.44 55.5546 14.8133 74.4506 10.1653C79.9786 8.8053 85.6906 10.8506 88.5653 15.7626C90.6186 19.272 93.1253 24.0826 95.776 30.3706M77.504 82.9946C77.7573 88.6746 82.136 92.9066 87.8133 93.1333C90.7066 93.2506 94.304 93.3333 98.6666 93.3333C103.029 93.3333 106.627 93.2506 109.52 93.1333C115.2 92.9066 119.576 88.6746 119.829 82.9946C119.931 80.6826 120 77.9173 120 74.6666C120 71.416 119.931 68.6506 119.829 66.3386C119.576 60.6586 115.197 56.4266 109.52 56.2C105.904 56.0611 102.285 55.9944 98.6666 56C94.304 56 90.7066 56.0826 87.8133 56.2C82.1333 56.4266 77.7573 60.6586 77.504 66.3386C77.386 69.113 77.3291 71.8897 77.3333 74.6666C77.3333 77.92 77.4026 80.6826 77.504 82.9946Z" stroke="#2859C5" stroke-width="4" stroke-linecap="round" stroke-linejoin="round"/>
<path d="M108.997 56.1786C108.831 51.7185 108.57 47.2624 108.216 42.8133C107.661 36.0106 102.379 30.8933 95.5707 30.4213C87.7307 29.8773 75.6347 29.3333 58.6667 29.3333C41.6987 29.3333 29.6 29.8773 21.76 30.4213C14.9547 30.8906 9.672 36.0106 9.11733 42.8133C8.544 49.8373 8 60.3012 8 74.6666C8 89.0319 8.544 99.4932 9.11733 106.52C9.672 113.323 14.9547 118.44 21.7627 118.912C29.6 119.456 41.6987 120 58.6667 120C75.6347 120 87.7333 119.456 95.5707 118.912C102.379 118.443 107.661 113.323 108.216 106.52C108.507 102.965 108.789 98.5306 108.997 93.1546M96 71.9999V77.3332" stroke="#2859C5" stroke-width="4" stroke-linecap="round" stroke-linejoin="round"/>
</svg>
