<svg width="250" height="179" viewBox="0 0 250 179" fill="none" xmlns="http://www.w3.org/2000/svg">
<g clip-path="url(#clip0_204_12903)">
<path d="M242.609 52.4517H105.806C103.88 52.4534 102.034 53.2192 100.672 54.5808C99.3102 55.9425 98.5445 57.7888 98.5427 59.7144V81.885C98.5445 83.8107 99.3102 85.657 100.672 87.0187C102.034 88.3803 103.88 89.146 105.806 89.1478H242.609C244.534 89.146 246.381 88.3803 247.742 87.0187C249.104 85.657 249.87 83.8107 249.871 81.885V59.7144C249.87 57.7888 249.104 55.9425 247.742 54.5808C246.381 53.2192 244.534 52.4534 242.609 52.4517Z" fill="#F2F2F2"/>
<path d="M54.8617 178.99H0.435411C0.319932 178.99 0.209177 178.945 0.127522 178.863C0.0458665 178.781 0 178.671 0 178.555C0 178.44 0.0458665 178.329 0.127522 178.247C0.209177 178.166 0.319932 178.12 0.435411 178.12H54.8617C54.9772 178.12 55.0879 178.166 55.1696 178.247C55.2513 178.329 55.2971 178.44 55.2971 178.555C55.2971 178.671 55.2513 178.781 55.1696 178.863C55.0879 178.945 54.9772 178.99 54.8617 178.99Z" fill="#3F3D56"/>
<path d="M46.8703 42.6607C46.3656 42.9793 45.9368 43.4047 45.6143 43.9069C45.2917 44.4091 45.0832 44.9759 45.0034 45.5675C44.9236 46.159 44.9745 46.7608 45.1525 47.3305C45.3304 47.9003 45.6312 48.4241 46.0334 48.865L42.0767 57.3144L46.6249 60.9713L52.045 48.9606C52.741 48.2357 53.1469 47.2807 53.1858 46.2765C53.2246 45.2723 52.8938 44.2887 52.256 43.5122C51.6181 42.7356 50.7176 42.22 49.725 42.0631C48.7323 41.9061 47.7166 42.1188 46.8703 42.6607Z" fill="#FFB8B8"/>
<path d="M24.1325 46.0895C25.3847 45.3374 26.8784 45.096 28.3039 45.4155C29.7293 45.7351 30.977 46.591 31.7883 47.8058L39.8846 59.9286L42.6954 53.7321C42.8709 53.3451 43.1818 53.0357 43.5696 52.862C43.9574 52.6884 44.3953 52.6624 44.8008 52.7891L49.0432 54.1143C49.2648 54.1836 49.4704 54.2964 49.6477 54.4462C49.8251 54.5961 49.9708 54.7799 50.0761 54.9868C50.1814 55.1938 50.2443 55.4197 50.261 55.6513C50.2777 55.8829 50.248 56.1155 50.1735 56.3354L47.2695 64.9105C46.9021 65.9952 46.2883 66.9801 45.4763 67.7877C44.6643 68.5953 43.6762 69.2037 42.5895 69.5651C41.5028 69.9266 40.3471 70.0312 39.2132 69.8709C38.0792 69.7105 36.9978 69.2895 36.054 68.6409C35.6129 68.3378 35.206 67.9879 34.8403 67.5971L22.909 54.8486C22.3296 54.2295 21.896 53.4887 21.6399 52.6804C21.3839 51.872 21.3119 51.0167 21.4292 50.1769C21.5465 49.3372 21.8501 48.5343 22.3179 47.827C22.7856 47.1198 23.4056 46.5262 24.1325 46.0895Z" fill="#CCCCCC"/>
<path d="M50.3239 33.5637C50.5412 33.5691 50.7475 33.6606 50.8973 33.8181C51.0472 33.9756 51.1283 34.1861 51.123 34.4035L51.0531 37.2174L51.1942 37.2302L51.1435 39.1414L51.0057 39.1242L50.7553 49.205C50.7467 49.5501 50.6129 49.8802 50.3788 50.1338C50.1447 50.3874 49.8264 50.5472 49.4831 50.5833L43.0731 51.2582C42.917 51.2746 42.7593 51.2567 42.6109 51.2057C42.4624 51.1547 42.327 51.0719 42.214 50.963C42.101 50.8541 42.0131 50.7218 41.9566 50.5754C41.9002 50.429 41.8764 50.272 41.887 50.1154L42.8592 35.7611C42.8796 35.4596 43.002 35.174 43.2062 34.9513C43.4104 34.7286 43.6844 34.582 43.983 34.5356L50.171 33.5743C50.2215 33.566 50.2727 33.5625 50.3239 33.5637Z" fill="#3F3D56"/>
<path d="M45.363 35.0575L48.6161 34.5521C48.6746 34.543 48.7285 34.5149 48.7695 34.472C48.8104 34.4292 48.8361 34.374 48.8425 34.3151C48.8498 34.2484 48.8789 34.186 48.9253 34.1374C48.9717 34.0889 49.0327 34.057 49.099 34.0467L49.7843 33.9403C49.8778 33.9258 49.9734 33.9319 50.0642 33.9584C50.1551 33.9848 50.239 34.0309 50.3101 34.0933C50.3812 34.1557 50.4378 34.233 50.4758 34.3196C50.5138 34.4063 50.5323 34.5002 50.53 34.5948L50.1778 49.2103C50.1735 49.3917 50.1025 49.5651 49.9784 49.6974C49.8543 49.8298 49.6858 49.9118 49.5051 49.9279L43.0998 50.4974C43.0181 50.5046 42.9358 50.4942 42.8585 50.4667C42.7812 50.4393 42.7107 50.3954 42.6519 50.3382C42.5931 50.2811 42.5473 50.2119 42.5177 50.1354C42.4881 50.0589 42.4753 49.9769 42.4803 49.895L43.3446 35.6733C43.3573 35.4637 43.4413 35.2648 43.5827 35.1096C43.724 34.9544 43.9142 34.8522 44.1216 34.82L44.844 34.7078C44.8705 34.8207 44.9387 34.9195 45.0349 34.9843C45.1312 35.0491 45.2483 35.0753 45.363 35.0575Z" fill="white"/>
<path d="M30.2705 173.705L35.2482 173.705L37.6155 154.505L30.2688 154.506L30.2705 173.705Z" fill="#FFB8B8"/>
<path d="M44.8484 178.326L29.2042 178.328L29.2037 172.283L38.8035 172.282C39.5973 172.282 40.3833 172.439 41.1166 172.742C41.85 173.046 42.5163 173.491 43.0776 174.052C43.639 174.614 44.0843 175.28 44.3881 176.013C44.6919 176.746 44.8483 177.532 44.8484 178.326Z" fill="#2F2E41"/>
<path d="M14.972 173.705L19.9496 173.705L22.3169 154.505L14.9702 154.506L14.972 173.705Z" fill="#FFB8B8"/>
<path d="M29.55 178.326L13.9059 178.328L13.9053 172.283L23.5052 172.282C25.1082 172.282 26.6457 172.919 27.7793 174.052C28.913 175.186 29.5499 176.723 29.55 178.326Z" fill="#2F2E41"/>
<path d="M29.5501 39.5645C35.4563 39.5645 40.2442 34.7766 40.2442 28.8704C40.2442 22.9642 35.4563 18.1763 29.5501 18.1763C23.6439 18.1763 18.856 22.9642 18.856 28.8704C18.856 34.7766 23.6439 39.5645 29.5501 39.5645Z" fill="#FFB8B8"/>
<path d="M35.0538 57.4823C34.9665 54.7328 34.1924 52.0489 32.8022 49.6752C31.4121 47.3015 29.4499 45.3134 27.0947 43.8921C24.3319 42.2641 21.3077 41.6292 18.9018 44.0351C17.4571 45.516 16.3002 47.2525 15.4899 49.156C13.2644 54.3434 13.1188 60.188 15.0833 65.4797L20.8096 81.2999L34.0631 82.7357C34.3121 82.7627 34.5639 82.7357 34.8015 82.6565C35.039 82.5773 35.2567 82.4478 35.4397 82.2769C35.6226 82.1059 35.7666 81.8975 35.8617 81.6659C35.9569 81.4343 36.001 81.1849 35.991 80.9347L35.0538 57.4823Z" fill="#2F2E41"/>
<path d="M21.6499 79.3516C21.6499 79.3516 11.7481 83.0481 14.3369 98.7006C16.66 112.746 14.8139 159.366 14.4104 168.79C14.3912 169.239 14.5465 169.678 14.844 170.016C15.1414 170.353 15.5578 170.562 16.0058 170.599L21.7859 171.08C22.2386 171.118 22.6882 170.977 23.0386 170.688C23.3891 170.399 23.6128 169.985 23.662 169.533L26.6471 142.114C26.6588 142.006 26.7102 141.907 26.7912 141.835C26.8722 141.763 26.977 141.724 27.0853 141.725C27.1935 141.727 27.2973 141.768 27.3766 141.842C27.4558 141.916 27.5047 142.016 27.5138 142.124L29.7382 168.508C29.7757 168.953 29.9823 169.366 30.3155 169.662C30.6486 169.959 31.0829 170.117 31.5288 170.103L36.3837 169.949C36.6125 169.942 36.8376 169.889 37.0462 169.795C37.2547 169.701 37.4427 169.566 37.5992 169.399C37.7558 169.232 37.8779 169.036 37.9585 168.822C38.0392 168.608 38.0768 168.38 38.0693 168.151L35.2094 81.1798L21.6499 79.3516Z" fill="#2F2E41"/>
<path d="M31.6963 28.1657C35.2729 29.6326 39.8404 27.919 41.5696 24.4617C43.2989 21.0043 41.9303 16.3218 38.6114 14.3398C35.2924 12.3579 30.521 13.3738 28.2973 16.5359C26.4884 13.277 21.7497 12.4462 18.4961 14.2646C15.2425 16.083 13.4703 19.8918 13.2601 23.6131C13.0499 27.3344 14.1813 31.0004 15.5614 34.4627C17.7938 40.0632 24.9806 43.0787 30.5409 40.748C27.9954 36.9568 28.4979 31.4087 31.6963 28.1657Z" fill="#2F2E41"/>
<path d="M46.1089 43.9575C46.0137 43.9577 45.921 43.9269 45.8449 43.8698L45.8402 43.8662L44.8459 43.1056C44.7998 43.0703 44.7612 43.0263 44.7321 42.9761C44.7031 42.9258 44.6843 42.8704 44.6767 42.8128C44.6691 42.7553 44.6729 42.6968 44.6879 42.6408C44.7029 42.5847 44.7287 42.5322 44.764 42.4861C44.7994 42.4401 44.8434 42.4014 44.8936 42.3724C44.9439 42.3434 44.9993 42.3245 45.0569 42.3169C45.1144 42.3093 45.1728 42.3131 45.2289 42.3281C45.2849 42.3431 45.3375 42.369 45.3835 42.4043L46.0276 42.8982L47.5495 40.9127C47.5847 40.8667 47.6287 40.828 47.679 40.799C47.7292 40.77 47.7846 40.7511 47.8421 40.7435C47.8996 40.736 47.9581 40.7398 48.0141 40.7547C48.0701 40.7697 48.1227 40.7956 48.1687 40.8309C48.2616 40.9023 48.3227 41.0077 48.338 41.1238C48.3533 41.2399 48.322 41.3574 48.2508 41.4504L46.4607 43.7847C46.4193 43.8384 46.3661 43.882 46.3051 43.9118C46.2442 43.9417 46.1771 43.9572 46.1093 43.957L46.1089 43.9575Z" fill="#1E9FE2"/>
<path d="M242.737 0H105.934C104.008 0.00174433 102.162 0.767493 100.8 2.12915C99.4386 3.49081 98.6729 5.3371 98.6711 7.26278V29.4334C98.6729 31.359 99.4386 33.2053 100.8 34.567C102.162 35.9287 104.008 36.6944 105.934 36.6961H242.737C244.663 36.6944 246.509 35.9287 247.871 34.567C249.232 33.2053 249.998 31.359 250 29.4334V7.26278C249.998 5.3371 249.232 3.4908 247.871 2.12914C246.509 0.767488 244.663 0.00174432 242.737 0ZM249.235 29.4334C249.233 31.1561 248.548 32.8075 247.329 34.0256C246.111 35.2438 244.46 35.9292 242.737 35.9316H105.934C104.211 35.9292 102.56 35.2438 101.342 34.0256C100.124 32.8075 99.4381 31.1561 99.4356 29.4334V7.26278C99.4381 5.54008 100.124 3.88863 101.342 2.6705C102.56 1.45236 104.211 0.766938 105.934 0.7645H242.737C244.46 0.766938 246.111 1.45236 247.329 2.6705C248.548 3.88863 249.233 5.54008 249.235 7.26278V29.4334Z" fill="#3F3D56"/>
<path d="M133.774 30.9889C131.273 30.9889 128.829 30.2476 126.751 28.8586C124.672 27.4696 123.052 25.4954 122.095 23.1855C121.138 20.8757 120.888 18.334 121.375 15.8819C121.863 13.4298 123.067 11.1774 124.835 9.40952C126.603 7.64164 128.855 6.4377 131.307 5.94994C133.759 5.46217 136.301 5.7125 138.611 6.66926C140.921 7.62602 142.895 9.24625 144.284 11.325C145.673 13.4038 146.414 15.8478 146.414 18.348C146.411 21.6994 145.078 24.9124 142.708 27.2822C140.338 29.652 137.125 30.9851 133.774 30.9889Z" fill="#4FADF9"/>
<path d="M224.072 28.6688H158.367C157.556 28.6688 156.778 28.3466 156.205 27.7731C155.631 27.1996 155.309 26.4218 155.309 25.6107C155.309 24.7997 155.631 24.0219 156.205 23.4484C156.778 22.8749 157.556 22.5527 158.367 22.5527H224.072C224.883 22.5527 225.66 22.8749 226.234 23.4484C226.807 24.0219 227.13 24.7997 227.13 25.6107C227.13 26.4218 226.807 27.1996 226.234 27.7731C225.66 28.3466 224.883 28.6688 224.072 28.6688Z" fill="#CCCCCC"/>
<path d="M180.113 15.6722H158.367C157.556 15.6722 156.778 15.35 156.205 14.7765C155.631 14.203 155.309 13.4252 155.309 12.6142C155.309 11.8031 155.631 11.0253 156.205 10.4518C156.778 9.87835 157.556 9.55615 158.367 9.55615H180.113C180.924 9.55615 181.701 9.87835 182.275 10.4518C182.848 11.0253 183.171 11.8031 183.171 12.6142C183.171 13.4252 182.848 14.203 182.275 14.7765C181.701 15.35 180.924 15.6722 180.113 15.6722Z" fill="#CCCCCC"/>
<path d="M133.128 22.7943C132.814 22.7949 132.509 22.6934 132.258 22.5052L132.243 22.4936L128.966 19.9873C128.814 19.8711 128.687 19.726 128.591 19.5604C128.495 19.3948 128.432 19.2119 128.407 19.0222C128.382 18.8324 128.394 18.6396 128.444 18.4547C128.493 18.2698 128.578 18.0964 128.695 17.9445C128.811 17.7926 128.956 17.6652 129.122 17.5694C129.288 17.4737 129.471 17.4117 129.661 17.3867C129.851 17.3618 130.043 17.3746 130.228 17.4243C130.413 17.4739 130.586 17.5596 130.738 17.6763L132.86 19.3036L137.875 12.7613C137.991 12.6096 138.136 12.4823 138.302 12.3867C138.467 12.2911 138.65 12.229 138.839 12.2039C139.029 12.1789 139.221 12.1914 139.406 12.2408C139.591 12.2902 139.764 12.3755 139.915 12.4918L139.916 12.4921L139.885 12.5353L139.917 12.4921C140.223 12.7273 140.423 13.0743 140.473 13.4569C140.524 13.8395 140.42 14.2265 140.186 14.533L134.287 22.2248C134.151 22.402 133.976 22.5454 133.775 22.6439C133.574 22.7424 133.353 22.7933 133.129 22.7926L133.128 22.7943Z" fill="white"/>
<path d="M183.957 59.6514H47.1536C45.228 59.6531 43.3817 60.4189 42.02 61.7805C40.6583 63.1422 39.8926 64.9885 39.8909 66.9141V89.0847C39.8926 91.0104 40.6583 92.8567 42.02 94.2184C43.3817 95.58 45.228 96.3458 47.1536 96.3475H183.957C185.883 96.3458 187.729 95.58 189.09 94.2184C190.452 92.8567 191.218 91.0104 191.22 89.0847V66.9141C191.218 64.9885 190.452 63.1422 189.09 61.7805C187.729 60.4189 185.883 59.6531 183.957 59.6514Z" fill="white"/>
<path d="M183.957 59.6514H47.1536C45.228 59.6531 43.3817 60.4189 42.02 61.7805C40.6583 63.1422 39.8926 64.9885 39.8909 66.9141V89.0847C39.8926 91.0104 40.6583 92.8567 42.02 94.2184C43.3817 95.58 45.228 96.3458 47.1536 96.3475H183.957C185.883 96.3458 187.729 95.58 189.09 94.2184C190.452 92.8567 191.218 91.0104 191.22 89.0847V66.9141C191.218 64.9885 190.452 63.1422 189.09 61.7805C187.729 60.4189 185.883 59.6531 183.957 59.6514ZM190.455 89.0847C190.453 90.8074 189.767 92.4589 188.549 93.677C187.331 94.8951 185.68 95.5806 183.957 95.583H47.1536C45.4309 95.5806 43.7795 94.8951 42.5614 93.677C41.3432 92.4589 40.6578 90.8074 40.6553 89.0847V66.9141C40.6578 65.1914 41.3432 63.54 42.5613 62.3219C43.7795 61.1037 45.4309 60.4183 47.1536 60.4159H183.957C185.68 60.4183 187.331 61.1037 188.549 62.3219C189.767 63.54 190.453 65.1914 190.455 66.9141V89.0847Z" fill="#3F3D56"/>
<path d="M74.9933 90.6403C72.4932 90.6403 70.0492 89.8989 67.9704 88.5099C65.8916 87.121 64.2713 85.1467 63.3146 82.8369C62.3578 80.5271 62.1074 77.9854 62.5952 75.5333C63.0829 73.0812 64.2869 70.8288 66.0547 69.0609C67.8226 67.293 70.075 66.0891 72.5271 65.6013C74.9792 65.1135 77.5209 65.3639 79.8307 66.3206C82.1405 67.2774 84.1148 68.8976 85.5038 70.9764C86.8928 73.0552 87.6342 75.4992 87.6342 77.9993C87.6304 81.3507 86.2974 84.5638 83.9276 86.9336C81.5578 89.3034 78.3447 90.6365 74.9933 90.6403Z" fill="#4FADF9"/>
<path d="M165.291 88.3201H99.5868C98.7758 88.3201 97.998 87.9979 97.4245 87.4245C96.851 86.851 96.5288 86.0731 96.5288 85.2621C96.5288 84.4511 96.851 83.6733 97.4245 83.0998C97.998 82.5263 98.7758 82.2041 99.5868 82.2041H165.291C166.102 82.2041 166.88 82.5263 167.454 83.0998C168.027 83.6733 168.349 84.4511 168.349 85.2621C168.349 86.0731 168.027 86.851 167.454 87.4245C166.88 87.9979 166.102 88.3201 165.291 88.3201Z" fill="#CCCCCC"/>
<path d="M121.332 75.3235H99.5868C99.1852 75.3235 98.7876 75.2444 98.4166 75.0908C98.0455 74.9371 97.7084 74.7118 97.4245 74.4279C97.1405 74.1439 96.9153 73.8068 96.7616 73.4358C96.6079 73.0648 96.5288 72.6671 96.5288 72.2655C96.5288 71.8639 96.6079 71.4663 96.7616 71.0953C96.9153 70.7243 97.1405 70.3872 97.4245 70.1032C97.7084 69.8192 98.0455 69.594 98.4166 69.4403C98.7876 69.2866 99.1852 69.2075 99.5868 69.2075H121.332C122.143 69.2075 122.921 69.5297 123.495 70.1032C124.068 70.6767 124.39 71.4545 124.39 72.2655C124.39 73.0766 124.068 73.8544 123.495 74.4279C122.921 75.0014 122.143 75.3235 121.332 75.3235Z" fill="#CCCCCC"/>
<path d="M74.3475 82.4457C74.0339 82.4462 73.7286 82.3448 73.4777 82.1566L73.4621 82.1449L70.1858 79.6386C70.0337 79.5224 69.906 79.3774 69.81 79.2118C69.714 79.0462 69.6517 78.8633 69.6265 78.6735C69.6012 78.4838 69.6137 78.291 69.6631 78.1061C69.7125 77.9211 69.7978 77.7478 69.9143 77.5959C70.0307 77.444 70.176 77.3165 70.3417 77.2208C70.5075 77.1251 70.6905 77.063 70.8802 77.0381C71.07 77.0132 71.2628 77.026 71.4477 77.0756C71.6325 77.1253 71.8058 77.211 71.9575 77.3276L74.0796 78.955L79.0944 72.4127C79.2107 72.261 79.3557 72.1337 79.5212 72.0381C79.6867 71.9424 79.8694 71.8803 80.0588 71.8553C80.2483 71.8303 80.4409 71.8428 80.6255 71.8922C80.8101 71.9416 80.9832 72.0269 81.1349 72.1432L81.1353 72.1435L81.1042 72.1867L81.1362 72.1435C81.4422 72.3787 81.6424 72.7256 81.6929 73.1083C81.7433 73.4909 81.64 73.8779 81.4054 74.1844L75.5069 81.8762C75.3705 82.0534 75.195 82.1968 74.9942 82.2953C74.7933 82.3938 74.5725 82.4446 74.3488 82.444L74.3475 82.4457Z" fill="white"/>
<path d="M42.7175 64.6526C42.1677 64.4201 41.5737 64.3109 40.9772 64.3328C40.3807 64.3547 39.7963 64.5072 39.2651 64.7794C38.7339 65.0516 38.2689 65.4369 37.9027 65.9083C37.5365 66.3797 37.2782 66.9256 37.1459 67.5077L27.9498 69.083L27.5442 74.9049L40.4995 72.4978C41.492 72.6553 42.5078 72.4433 43.3544 71.9019C44.201 71.3605 44.8197 70.5274 45.0931 69.5603C45.3665 68.5933 45.2756 67.5596 44.8378 66.6551C44.4 65.7505 43.6455 65.038 42.7175 64.6526Z" fill="#FFB8B8"/>
<path d="M26.9209 47.9423C28.2534 48.5409 29.3044 49.6295 29.8558 50.9822C30.4073 52.3349 30.4169 53.8479 29.8828 55.2076L24.5522 68.7759L31.2443 67.5458C31.6621 67.469 32.0937 67.5476 32.4577 67.7668C32.8216 67.986 33.0929 68.3307 33.2204 68.736L34.5545 72.9756C34.6242 73.1971 34.6489 73.4303 34.6271 73.6615C34.6054 73.8926 34.5376 74.1171 34.4279 74.3217C34.3181 74.5264 34.1685 74.7069 33.9879 74.8529C33.8073 74.9989 33.5994 75.1072 33.3763 75.1716L24.6781 77.6831C23.5778 78.0008 22.4188 78.0591 21.2922 77.8535C20.1656 77.648 19.1019 77.184 18.1848 76.4982C17.2676 75.8124 16.5219 74.9233 16.0061 73.9008C15.4904 72.8782 15.2186 71.7501 15.2123 70.6048C15.2093 70.0697 15.2643 69.5358 15.3763 69.0125L19.0311 51.9384C19.2086 51.1093 19.5693 50.3304 20.0868 49.6587C20.6042 48.987 21.2654 48.4395 22.0218 48.0564C22.7782 47.6732 23.6108 47.4642 24.4585 47.4444C25.3061 47.4247 26.1475 47.5948 26.9209 47.9423Z" fill="#CCCCCC"/>
</g>
<defs>
<clipPath id="clip0_204_12903">
<rect width="250" height="178.991" fill="white"/>
</clipPath>
</defs>
</svg>
